<mxfile host="app.diagrams.net" modified="2021-04-01T12:59:59.321Z" agent="5.0 (Windows NT 10.0; Win64; x64) AppleWebKit/537.36 (KHTML, like Gecko) Chrome/89.0.4389.90 Safari/537.36" etag="N4vlvR6Q7HcvVGLiaeAf" version="14.5.4" type="github">
  <diagram id="C5RBs43oDa-KdzZeNtuy" name="Page-1">
    <mxGraphModel dx="1874" dy="1963" grid="1" gridSize="10" guides="1" tooltips="1" connect="1" arrows="1" fold="1" page="1" pageScale="1" pageWidth="827" pageHeight="1169" math="0" shadow="0">
      <root>
        <mxCell id="WIyWlLk6GJQsqaUBKTNV-0" />
        <mxCell id="WIyWlLk6GJQsqaUBKTNV-1" parent="WIyWlLk6GJQsqaUBKTNV-0" />
        <mxCell id="CPutb8Eh69h9gtbtdPaH-7" value="MFrame" style="swimlane;fontStyle=1;align=center;verticalAlign=top;childLayout=stackLayout;horizontal=1;startSize=26;horizontalStack=0;resizeParent=1;resizeParentMax=0;resizeLast=0;collapsible=1;marginBottom=0;" parent="WIyWlLk6GJQsqaUBKTNV-1" vertex="1">
          <mxGeometry x="505" y="-960" width="210" height="140" as="geometry" />
        </mxCell>
        <mxCell id="CPutb8Eh69h9gtbtdPaH-8" value="- date: ArrayList&#xa;- file: Information&#xa;- usernameField: JTextField" style="text;strokeColor=none;fillColor=none;align=left;verticalAlign=top;spacingLeft=4;spacingRight=4;overflow=hidden;rotatable=0;points=[[0,0.5],[1,0.5]];portConstraint=eastwest;" parent="CPutb8Eh69h9gtbtdPaH-7" vertex="1">
          <mxGeometry y="26" width="210" height="54" as="geometry" />
        </mxCell>
        <mxCell id="CPutb8Eh69h9gtbtdPaH-9" value="" style="line;strokeWidth=1;fillColor=none;align=left;verticalAlign=middle;spacingTop=-1;spacingLeft=3;spacingRight=3;rotatable=0;labelPosition=right;points=[];portConstraint=eastwest;" parent="CPutb8Eh69h9gtbtdPaH-7" vertex="1">
          <mxGeometry y="80" width="210" height="8" as="geometry" />
        </mxCell>
        <mxCell id="CPutb8Eh69h9gtbtdPaH-10" value="- produce(): ArrayList &lt;String&gt;&#xa;- judge(String name, String word): int&#xa;+ MF() + center() : void" style="text;strokeColor=none;fillColor=none;align=left;verticalAlign=top;spacingLeft=4;spacingRight=4;overflow=hidden;rotatable=0;points=[[0,0.5],[1,0.5]];portConstraint=eastwest;" parent="CPutb8Eh69h9gtbtdPaH-7" vertex="1">
          <mxGeometry y="88" width="210" height="52" as="geometry" />
        </mxCell>
        <mxCell id="CPutb8Eh69h9gtbtdPaH-17" value="Information" style="swimlane;fontStyle=1;align=center;verticalAlign=top;childLayout=stackLayout;horizontal=1;startSize=26;horizontalStack=0;resizeParent=1;resizeParentMax=0;resizeLast=0;collapsible=1;marginBottom=0;" parent="WIyWlLk6GJQsqaUBKTNV-1" vertex="1">
          <mxGeometry x="550" y="-670" width="220" height="68" as="geometry" />
        </mxCell>
        <mxCell id="CPutb8Eh69h9gtbtdPaH-18" value="- width, length, lambnumber : int&#xa;- fileName: String" style="text;strokeColor=none;fillColor=none;align=left;verticalAlign=top;spacingLeft=4;spacingRight=4;overflow=hidden;rotatable=0;points=[[0,0.5],[1,0.5]];portConstraint=eastwest;" parent="CPutb8Eh69h9gtbtdPaH-17" vertex="1">
          <mxGeometry y="26" width="220" height="34" as="geometry" />
        </mxCell>
        <mxCell id="CPutb8Eh69h9gtbtdPaH-19" value="" style="line;strokeWidth=1;fillColor=none;align=left;verticalAlign=middle;spacingTop=-1;spacingLeft=3;spacingRight=3;rotatable=0;labelPosition=right;points=[];portConstraint=eastwest;" parent="CPutb8Eh69h9gtbtdPaH-17" vertex="1">
          <mxGeometry y="60" width="220" height="8" as="geometry" />
        </mxCell>
        <mxCell id="CPutb8Eh69h9gtbtdPaH-21" value="Selection" style="swimlane;fontStyle=1;align=center;verticalAlign=top;childLayout=stackLayout;horizontal=1;startSize=26;horizontalStack=0;resizeParent=1;resizeParentMax=0;resizeLast=0;collapsible=1;marginBottom=0;" parent="WIyWlLk6GJQsqaUBKTNV-1" vertex="1">
          <mxGeometry x="500" y="-510" width="210" height="68" as="geometry" />
        </mxCell>
        <mxCell id="CPutb8Eh69h9gtbtdPaH-22" value="- file: Information&#xa;+ center : void" style="text;strokeColor=none;fillColor=none;align=left;verticalAlign=top;spacingLeft=4;spacingRight=4;overflow=hidden;rotatable=0;points=[[0,0.5],[1,0.5]];portConstraint=eastwest;" parent="CPutb8Eh69h9gtbtdPaH-21" vertex="1">
          <mxGeometry y="26" width="210" height="34" as="geometry" />
        </mxCell>
        <mxCell id="CPutb8Eh69h9gtbtdPaH-23" value="" style="line;strokeWidth=1;fillColor=none;align=left;verticalAlign=middle;spacingTop=-1;spacingLeft=3;spacingRight=3;rotatable=0;labelPosition=right;points=[];portConstraint=eastwest;" parent="CPutb8Eh69h9gtbtdPaH-21" vertex="1">
          <mxGeometry y="60" width="210" height="8" as="geometry" />
        </mxCell>
        <mxCell id="CPutb8Eh69h9gtbtdPaH-25" value="MyMenuBar" style="swimlane;fontStyle=1;align=center;verticalAlign=top;childLayout=stackLayout;horizontal=1;startSize=26;horizontalStack=0;resizeParent=1;resizeParentMax=0;resizeLast=0;collapsible=1;marginBottom=0;" parent="WIyWlLk6GJQsqaUBKTNV-1" vertex="1">
          <mxGeometry x="60" y="-950" width="210" height="90" as="geometry" />
        </mxCell>
        <mxCell id="CPutb8Eh69h9gtbtdPaH-26" value="- backgroundImage : ImageIcon" style="text;strokeColor=none;fillColor=none;align=left;verticalAlign=top;spacingLeft=4;spacingRight=4;overflow=hidden;rotatable=0;points=[[0,0.5],[1,0.5]];portConstraint=eastwest;" parent="CPutb8Eh69h9gtbtdPaH-25" vertex="1">
          <mxGeometry y="26" width="210" height="24" as="geometry" />
        </mxCell>
        <mxCell id="CPutb8Eh69h9gtbtdPaH-27" value="" style="line;strokeWidth=1;fillColor=none;align=left;verticalAlign=middle;spacingTop=-1;spacingLeft=3;spacingRight=3;rotatable=0;labelPosition=right;points=[];portConstraint=eastwest;" parent="CPutb8Eh69h9gtbtdPaH-25" vertex="1">
          <mxGeometry y="50" width="210" height="8" as="geometry" />
        </mxCell>
        <mxCell id="CPutb8Eh69h9gtbtdPaH-28" value="- paintComponent(Graphics g) : void" style="text;strokeColor=none;fillColor=none;align=left;verticalAlign=top;spacingLeft=4;spacingRight=4;overflow=hidden;rotatable=0;points=[[0,0.5],[1,0.5]];portConstraint=eastwest;" parent="CPutb8Eh69h9gtbtdPaH-25" vertex="1">
          <mxGeometry y="58" width="210" height="32" as="geometry" />
        </mxCell>
        <mxCell id="CPutb8Eh69h9gtbtdPaH-29" value="LandFrame" style="swimlane;fontStyle=1;align=center;verticalAlign=top;childLayout=stackLayout;horizontal=1;startSize=26;horizontalStack=0;resizeParent=1;resizeParentMax=0;resizeLast=0;collapsible=1;marginBottom=0;" parent="WIyWlLk6GJQsqaUBKTNV-1" vertex="1">
          <mxGeometry x="200" y="-820" width="240" height="200" as="geometry" />
        </mxCell>
        <mxCell id="CPutb8Eh69h9gtbtdPaH-30" value="- width : int&#xa;- length : int&#xa;- minefield : Minefield&#xa;- fileName : String&#xa;- playMusic : PlayMusic&#xa;- playGame, boom, win : AudioClip&#xa;- buttons : JButton[][]&#xa;" style="text;strokeColor=none;fillColor=none;align=left;verticalAlign=top;spacingLeft=4;spacingRight=4;overflow=hidden;rotatable=0;points=[[0,0.5],[1,0.5]];portConstraint=eastwest;" parent="CPutb8Eh69h9gtbtdPaH-29" vertex="1">
          <mxGeometry y="26" width="240" height="114" as="geometry" />
        </mxCell>
        <mxCell id="CPutb8Eh69h9gtbtdPaH-31" value="" style="line;strokeWidth=1;fillColor=none;align=left;verticalAlign=middle;spacingTop=-1;spacingLeft=3;spacingRight=3;rotatable=0;labelPosition=right;points=[];portConstraint=eastwest;" parent="CPutb8Eh69h9gtbtdPaH-29" vertex="1">
          <mxGeometry y="140" width="240" height="8" as="geometry" />
        </mxCell>
        <mxCell id="CPutb8Eh69h9gtbtdPaH-32" value="+ center() : void&#xa;- setButton(JButton button, int i, int j) : void&#xa;+ LandFrame(Information file) : void" style="text;strokeColor=none;fillColor=none;align=left;verticalAlign=top;spacingLeft=4;spacingRight=4;overflow=hidden;rotatable=0;points=[[0,0.5],[1,0.5]];portConstraint=eastwest;" parent="CPutb8Eh69h9gtbtdPaH-29" vertex="1">
          <mxGeometry y="148" width="240" height="52" as="geometry" />
        </mxCell>
        <mxCell id="wc4InwyWiUyK8ALS0Piu-0" value="HomePanel&#xa;" style="swimlane;fontStyle=1;align=center;verticalAlign=top;childLayout=stackLayout;horizontal=1;startSize=26;horizontalStack=0;resizeParent=1;resizeParentMax=0;resizeLast=0;collapsible=1;marginBottom=0;" parent="WIyWlLk6GJQsqaUBKTNV-1" vertex="1">
          <mxGeometry x="60" y="-1050" width="210" height="90" as="geometry" />
        </mxCell>
        <mxCell id="wc4InwyWiUyK8ALS0Piu-1" value="- img : Image&#xa;- icon : Imageicon" style="text;strokeColor=none;fillColor=none;align=left;verticalAlign=top;spacingLeft=4;spacingRight=4;overflow=hidden;rotatable=0;points=[[0,0.5],[1,0.5]];portConstraint=eastwest;" parent="wc4InwyWiUyK8ALS0Piu-0" vertex="1">
          <mxGeometry y="26" width="210" height="30" as="geometry" />
        </mxCell>
        <mxCell id="wc4InwyWiUyK8ALS0Piu-2" value="" style="line;strokeWidth=1;fillColor=none;align=left;verticalAlign=middle;spacingTop=-1;spacingLeft=3;spacingRight=3;rotatable=0;labelPosition=right;points=[];portConstraint=eastwest;" parent="wc4InwyWiUyK8ALS0Piu-0" vertex="1">
          <mxGeometry y="56" width="210" height="8" as="geometry" />
        </mxCell>
        <mxCell id="wc4InwyWiUyK8ALS0Piu-3" value="- paintComponent(Graphics g) : void" style="text;strokeColor=none;fillColor=none;align=left;verticalAlign=top;spacingLeft=4;spacingRight=4;overflow=hidden;rotatable=0;points=[[0,0.5],[1,0.5]];portConstraint=eastwest;" parent="wc4InwyWiUyK8ALS0Piu-0" vertex="1">
          <mxGeometry y="64" width="210" height="26" as="geometry" />
        </mxCell>
        <mxCell id="wc4InwyWiUyK8ALS0Piu-4" value="Minefield" style="swimlane;fontStyle=1;align=center;verticalAlign=top;childLayout=stackLayout;horizontal=1;startSize=26;horizontalStack=0;resizeParent=1;resizeParentMax=0;resizeLast=0;collapsible=1;marginBottom=0;" parent="WIyWlLk6GJQsqaUBKTNV-1" vertex="1">
          <mxGeometry x="80" y="-500" width="220" height="190" as="geometry" />
        </mxCell>
        <mxCell id="wc4InwyWiUyK8ALS0Piu-5" value="- hiddenmap, map : int[][]&#xa;- boom, winner : boolean&#xa;- width, length, landnumber : int" style="text;strokeColor=none;fillColor=none;align=left;verticalAlign=top;spacingLeft=4;spacingRight=4;overflow=hidden;rotatable=0;points=[[0,0.5],[1,0.5]];portConstraint=eastwest;" parent="wc4InwyWiUyK8ALS0Piu-4" vertex="1">
          <mxGeometry y="26" width="220" height="54" as="geometry" />
        </mxCell>
        <mxCell id="wc4InwyWiUyK8ALS0Piu-6" value="" style="line;strokeWidth=1;fillColor=none;align=left;verticalAlign=middle;spacingTop=-1;spacingLeft=3;spacingRight=3;rotatable=0;labelPosition=right;points=[];portConstraint=eastwest;" parent="wc4InwyWiUyK8ALS0Piu-4" vertex="1">
          <mxGeometry y="80" width="220" height="8" as="geometry" />
        </mxCell>
        <mxCell id="wc4InwyWiUyK8ALS0Piu-7" value="- initLand : void&#xa;- setLand : void&#xa;- printLand : void&#xa;- printHiddenMap : void&#xa;- findZero : void&#xa;- initHiddenMap : void&#xa;" style="text;strokeColor=none;fillColor=none;align=left;verticalAlign=top;spacingLeft=4;spacingRight=4;overflow=hidden;rotatable=0;points=[[0,0.5],[1,0.5]];portConstraint=eastwest;" parent="wc4InwyWiUyK8ALS0Piu-4" vertex="1">
          <mxGeometry y="88" width="220" height="102" as="geometry" />
        </mxCell>
        <mxCell id="wc4InwyWiUyK8ALS0Piu-12" value="Association" style="text;html=1;strokeColor=none;fillColor=none;align=center;verticalAlign=middle;whiteSpace=wrap;rounded=0;" parent="WIyWlLk6GJQsqaUBKTNV-1" vertex="1">
          <mxGeometry x="590" y="-730" width="100" height="20" as="geometry" />
        </mxCell>
        <mxCell id="wc4InwyWiUyK8ALS0Piu-21" value="" style="endArrow=classic;html=1;exitX=0.392;exitY=1.033;exitDx=0;exitDy=0;exitPerimeter=0;entryX=0.175;entryY=-0.035;entryDx=0;entryDy=0;entryPerimeter=0;" parent="WIyWlLk6GJQsqaUBKTNV-1" source="CPutb8Eh69h9gtbtdPaH-10" target="CPutb8Eh69h9gtbtdPaH-17" edge="1">
          <mxGeometry width="50" height="50" relative="1" as="geometry">
            <mxPoint x="710" y="-490" as="sourcePoint" />
            <mxPoint x="760" y="-540" as="targetPoint" />
          </mxGeometry>
        </mxCell>
        <mxCell id="wc4InwyWiUyK8ALS0Piu-22" value="1" style="endArrow=open;html=1;endSize=12;startArrow=diamondThin;startSize=14;startFill=0;edgeStyle=orthogonalEdgeStyle;align=left;verticalAlign=bottom;exitX=-0.016;exitY=0.048;exitDx=0;exitDy=0;exitPerimeter=0;" parent="WIyWlLk6GJQsqaUBKTNV-1" source="CPutb8Eh69h9gtbtdPaH-22" edge="1">
          <mxGeometry x="-1" y="3" relative="1" as="geometry">
            <mxPoint x="150" y="-540" as="sourcePoint" />
            <mxPoint x="350" y="-610" as="targetPoint" />
          </mxGeometry>
        </mxCell>
        <mxCell id="wc4InwyWiUyK8ALS0Piu-25" value="Use" style="endArrow=open;endSize=12;dashed=1;html=1;exitX=1;exitY=0.5;exitDx=0;exitDy=0;entryX=0.014;entryY=0.372;entryDx=0;entryDy=0;entryPerimeter=0;" parent="WIyWlLk6GJQsqaUBKTNV-1" source="CPutb8Eh69h9gtbtdPaH-32" target="CPutb8Eh69h9gtbtdPaH-17" edge="1">
          <mxGeometry width="160" relative="1" as="geometry">
            <mxPoint x="150" y="-540" as="sourcePoint" />
            <mxPoint x="310" y="-540" as="targetPoint" />
          </mxGeometry>
        </mxCell>
        <mxCell id="wc4InwyWiUyK8ALS0Piu-26" value="" style="endArrow=open;endFill=1;endSize=12;html=1;exitX=0.5;exitY=0;exitDx=0;exitDy=0;entryX=0.25;entryY=1;entryDx=0;entryDy=0;" parent="WIyWlLk6GJQsqaUBKTNV-1" source="CPutb8Eh69h9gtbtdPaH-21" target="CPutb8Eh69h9gtbtdPaH-17" edge="1">
          <mxGeometry width="160" relative="1" as="geometry">
            <mxPoint x="390" y="-540" as="sourcePoint" />
            <mxPoint x="550" y="-540" as="targetPoint" />
          </mxGeometry>
        </mxCell>
        <mxCell id="wc4InwyWiUyK8ALS0Piu-27" value="Association" style="text;html=1;strokeColor=none;fillColor=none;align=center;verticalAlign=middle;whiteSpace=wrap;rounded=0;" parent="WIyWlLk6GJQsqaUBKTNV-1" vertex="1">
          <mxGeometry x="600" y="-560" width="100" height="20" as="geometry" />
        </mxCell>
        <mxCell id="wc4InwyWiUyK8ALS0Piu-28" value="1" style="endArrow=open;html=1;endSize=12;startArrow=diamondThin;startSize=14;startFill=1;edgeStyle=orthogonalEdgeStyle;align=left;verticalAlign=bottom;exitX=-0.009;exitY=0.856;exitDx=0;exitDy=0;exitPerimeter=0;entryX=0.25;entryY=0;entryDx=0;entryDy=0;" parent="WIyWlLk6GJQsqaUBKTNV-1" source="CPutb8Eh69h9gtbtdPaH-30" target="wc4InwyWiUyK8ALS0Piu-4" edge="1">
          <mxGeometry x="-1" y="3" relative="1" as="geometry">
            <mxPoint x="390" y="-540" as="sourcePoint" />
            <mxPoint x="550" y="-540" as="targetPoint" />
          </mxGeometry>
        </mxCell>
      </root>
    </mxGraphModel>
  </diagram>
</mxfile>
